<svg id="Layer_1" data-name="Layer 1" xmlns="http://www.w3.org/2000/svg" viewBox="0 0 385.69 225.32"><defs><style>.cls-1{fill:#fff;}</style></defs><title>logo</title><path class="cls-1" d="M602.63,241.49a41.58,41.58,0,1,1,9.6-58A41.63,41.63,0,0,1,602.63,241.49Zm-2.57-3.59a37.16,37.16,0,1,0-51.85-8.58A37.21,37.21,0,0,0,600.06,237.89Z" transform="translate(-348.6 -86.98)"/><path class="cls-1" d="M487.36,239.27a41.58,41.58,0,1,1,9.6-58A41.63,41.63,0,0,1,487.36,239.27Zm-2.57-3.59a37.16,37.16,0,1,0-51.85-8.58A37.21,37.21,0,0,0,484.79,235.68Z" transform="translate(-348.6 -86.98)"/><path class="cls-1" d="M530.33,170.53l.81,3.66-67,28.26-2-4.43,62.52-26.32A8.74,8.74,0,0,0,530.33,170.53Z" transform="translate(-348.6 -86.98)"/><path class="cls-1" d="M526,165.76c.05,0,.12.06.07.09a.06.06,0,1,1-.07-.09Z" transform="translate(-348.6 -86.98)"/><path class="cls-1" d="M533.65,162.17a8.79,8.79,0,0,0-4.51-5.17l2.72-3.29,54.89,52.81L583.37,210Z" transform="translate(-348.6 -86.98)"/><path class="cls-1" d="M529.32,168.6a5.79,5.79,0,1,1,1.34-8.08A5.8,5.8,0,0,1,529.32,168.6ZM526,163.92s0-.09,0-.06a0,0,0,1,0,0,.06Z" transform="translate(-348.6 -86.98)"/><path class="cls-1" d="M364.63,266.5q10.13,0,10.13,7.88a8.05,8.05,0,0,1-2,5.58,9.81,9.81,0,0,1-5.74,3v.23a7.68,7.68,0,0,1,4.14,2.59,7,7,0,0,1,1.44,4.42,9.4,9.4,0,0,1-3.56,7.79q-3.56,2.82-9.54,2.82H348.6l7.24-34.27Zm-11.32,30.87h6.23q4.24,0,6.52-1.89a6.54,6.54,0,0,0,2.27-5.33,5.09,5.09,0,0,0-1.75-4.16,7.71,7.71,0,0,0-5-1.44H356Zm3.45-16.2h5.81a9.2,9.2,0,0,0,5.84-1.71,5.61,5.61,0,0,0,2.18-4.66,4.32,4.32,0,0,0-1.56-3.64,8,8,0,0,0-4.91-1.21h-4.95Z" transform="translate(-348.6 -86.98)"/><path class="cls-1" d="M390.21,300.77h-3.94l5.48-25.69h3.94Zm2.65-32.25a3.08,3.08,0,0,1,.75-2.14,2.5,2.5,0,0,1,1.95-.83,1.84,1.84,0,0,1,2.06,2.11,3.18,3.18,0,0,1-.79,2.18,2.36,2.36,0,0,1-1.82.89,2.17,2.17,0,0,1-1.55-.57A2.13,2.13,0,0,1,392.86,268.52Z" transform="translate(-348.6 -86.98)"/><path class="cls-1" d="M414.41,287.67l12.33-12.59h4.71l-11,10.95,6.91,14.74H423l-5.51-12.28-3.56,2.88-1.92,9.4h-4l7.73-36.47h4l-3,14.11a83.85,83.85,0,0,1-2.39,9.26Z" transform="translate(-348.6 -86.98)"/><path class="cls-1" d="M451.22,301.24a9,9,0,0,1-6.77-2.55,9.78,9.78,0,0,1-2.46-7.08,21.09,21.09,0,0,1,1.75-8.45,15.64,15.64,0,0,1,4.63-6.29,10.09,10.09,0,0,1,6.35-2.25,8.06,8.06,0,0,1,5.39,1.56,5.44,5.44,0,0,1,1.8,4.35,7.43,7.43,0,0,1-3.89,6.62q-3.89,2.4-11.13,2.4h-.77l-.09,1.88a7.25,7.25,0,0,0,1.44,4.79,5.5,5.5,0,0,0,4.46,1.72,11.59,11.59,0,0,0,3-.42,23.24,23.24,0,0,0,3.88-1.55v3.42a21.24,21.24,0,0,1-3.89,1.44A15.78,15.78,0,0,1,451.22,301.24ZM454.48,278a6.26,6.26,0,0,0-4.54,2.2,14.39,14.39,0,0,0-3.25,6.12H447a19.13,19.13,0,0,0,8.19-1.39,4.38,4.38,0,0,0,2.85-4,2.74,2.74,0,0,0-.86-2.06A3.77,3.77,0,0,0,454.48,278Z" transform="translate(-348.6 -86.98)"/><path class="cls-1" d="M516.43,290.83a9.42,9.42,0,0,1-3.29,7.68q-3.29,2.73-9.27,2.73a24.9,24.9,0,0,1-4.37-.34,13.87,13.87,0,0,1-3.55-1.14v-4a17.08,17.08,0,0,0,8,2,9.42,9.42,0,0,0,6-1.77,5.87,5.87,0,0,0,2.23-4.86,4.72,4.72,0,0,0-1.23-3.22,18.71,18.71,0,0,0-4.58-3.29,14.55,14.55,0,0,1-4.91-4,8.1,8.1,0,0,1-1.37-4.71,9.11,9.11,0,0,1,3.09-7.14A11.78,11.78,0,0,1,511.3,266a19.92,19.92,0,0,1,4.32.45,19.46,19.46,0,0,1,4.23,1.52l-1.55,3.52a14.39,14.39,0,0,0-3.47-1.41,13.74,13.74,0,0,0-3.54-.52,7.52,7.52,0,0,0-5.05,1.63,5.5,5.5,0,0,0-1.91,4.42,5.35,5.35,0,0,0,.4,2.17,5.16,5.16,0,0,0,1.27,1.7,21.33,21.33,0,0,0,3.33,2.23A28.19,28.19,0,0,1,514,285a7.67,7.67,0,0,1,2.45,5.88Z" transform="translate(-348.6 -86.98)"/><path class="cls-1" d="M545.81,300.77l3.47-16.22a19.28,19.28,0,0,0,.42-3.16q0-3.47-3.45-3.47a7,7,0,0,0-4.07,1.38,12.16,12.16,0,0,0-3.49,4,21.56,21.56,0,0,0-2.29,6.36L534,300.77h-3.94l7.73-36.47h3.94q-.42,1.92-.81,3.73t-.8,3.67q-.41,1.86-.89,3.9T538.17,280h.26a15.62,15.62,0,0,1,4.35-4.12,8.83,8.83,0,0,1,4.49-1.24,6.39,6.39,0,0,1,4.75,1.69,6.49,6.49,0,0,1,1.68,4.78,19,19,0,0,1-.54,3.89q-.91,4.52-3.4,15.75Z" transform="translate(-348.6 -86.98)"/><path class="cls-1" d="M581.1,274.75a9.38,9.38,0,0,1,7,2.64,9.93,9.93,0,0,1,2.58,7.25A20.79,20.79,0,0,1,589,293a14.39,14.39,0,0,1-4.57,6,10.68,10.68,0,0,1-6.52,2.13,9.34,9.34,0,0,1-7.05-2.65,10,10,0,0,1-2.55-7.24,20.74,20.74,0,0,1,1.71-8.38,14.2,14.2,0,0,1,4.62-6A10.76,10.76,0,0,1,581.1,274.75Zm5.53,9.35a6.4,6.4,0,0,0-1.46-4.37,5,5,0,0,0-4-1.68,6.86,6.86,0,0,0-4.58,1.73,11.16,11.16,0,0,0-3.14,4.82,20.06,20.06,0,0,0-1.11,6.86,6.91,6.91,0,0,0,1.49,4.75,5.42,5.42,0,0,0,4.28,1.68,6.46,6.46,0,0,0,4.38-1.71,11.17,11.17,0,0,0,3-4.86A22,22,0,0,0,586.63,284.11Z" transform="translate(-348.6 -86.98)"/><path class="cls-1" d="M615.33,301.24a6.88,6.88,0,0,1-4-1.17,7.61,7.61,0,0,1-2.65-3.28h-.23l-.09.89q-.07.59-.25,1.64t-2.68,13h-3.89l7.88-37.22h3.26l-.61,4.9h.19q4.2-5.32,8.72-5.32a6.16,6.16,0,0,1,5.06,2.29,9.93,9.93,0,0,1,1.85,6.41,24.9,24.9,0,0,1-1.62,9.12,15.14,15.14,0,0,1-4.48,6.46A10,10,0,0,1,615.33,301.24Zm4.36-23.32a6.78,6.78,0,0,0-4.58,2.23,15.88,15.88,0,0,0-3.7,5.6,18.21,18.21,0,0,0-1.37,6.91,5.52,5.52,0,0,0,1.3,3.95A4.94,4.94,0,0,0,615.1,298a6.2,6.2,0,0,0,4.32-1.9,13.33,13.33,0,0,0,3.22-5.4,22.49,22.49,0,0,0,1.22-7.44Q623.86,277.92,619.69,277.92Z" transform="translate(-348.6 -86.98)"/><path class="cls-1" d="M375.5,126.49h-4.6L359.22,95.44h-.15q-.81,5.61-1.88,10.61l-4.37,20.44h-4.11l7.85-37.12h4.57l11.65,31h.15q.76-5.69,1.83-10.28l4.42-20.69h4.16Z" transform="translate(-348.6 -86.98)"/><path class="cls-1" d="M400.78,127a9.71,9.71,0,0,1-7.34-2.77,10.59,10.59,0,0,1-2.67-7.67,22.85,22.85,0,0,1,1.89-9.15,16.94,16.94,0,0,1,5-6.82,10.93,10.93,0,0,1,6.88-2.44q3.88,0,5.84,1.69a5.89,5.89,0,0,1,2,4.71,8,8,0,0,1-4.21,7.17q-4.22,2.6-12.06,2.6h-.84l-.1,2a7.86,7.86,0,0,0,1.56,5.19,6,6,0,0,0,4.84,1.87,12.56,12.56,0,0,0,3.29-.46,25.18,25.18,0,0,0,4.2-1.68V125a23,23,0,0,1-4.21,1.56A17.11,17.11,0,0,1,400.78,127Zm3.53-25.21a6.78,6.78,0,0,0-4.91,2.39,15.59,15.59,0,0,0-3.52,6.63h.3q5.79,0,8.87-1.51t3.08-4.38a3,3,0,0,0-.93-2.23A4.08,4.08,0,0,0,404.31,101.79Z" transform="translate(-348.6 -86.98)"/><path class="cls-1" d="M424.9,126.49h-4.27l5.94-27.83h4.27Zm2.87-34.94a3.34,3.34,0,0,1,.81-2.32,2.71,2.71,0,0,1,2.11-.9,2,2,0,0,1,2.23,2.29,3.44,3.44,0,0,1-.85,2.36,2.56,2.56,0,0,1-2,1,2.34,2.34,0,0,1-1.68-.62A2.31,2.31,0,0,1,427.77,91.55Z" transform="translate(-348.6 -86.98)"/><path class="cls-1" d="M465.47,98.66l-.63,2.72-5.36.61a7.14,7.14,0,0,1,1,4,10.3,10.3,0,0,1-3,7.73,10.85,10.85,0,0,1-7.91,2.88,8.49,8.49,0,0,1-2.13-.2q-3.53,1.35-3.53,3.33a1.35,1.35,0,0,0,.84,1.38,10.13,10.13,0,0,0,2.44.55l3,.36q4.6.56,6.67,2.23a6,6,0,0,1,2.07,4.93,8.29,8.29,0,0,1-3.71,7.24Q451.55,139,444.83,139a13.77,13.77,0,0,1-7.72-1.87,6,6,0,0,1-2.79-5.27,6.54,6.54,0,0,1,1.83-4.62,14.24,14.24,0,0,1,5.92-3.33,3.31,3.31,0,0,1-2-3.07,4,4,0,0,1,1.29-3,13.35,13.35,0,0,1,3.61-2.35,6.68,6.68,0,0,1-3.63-6.09,11.16,11.16,0,0,1,3-8.07,10.3,10.3,0,0,1,7.76-3.15,15.31,15.31,0,0,1,3.91.51Zm-27,32.78a3.58,3.58,0,0,0,1.65,3.1,8.62,8.62,0,0,0,4.9,1.14,13.7,13.7,0,0,0,7.22-1.61,5.08,5.08,0,0,0,2.6-4.56,2.85,2.85,0,0,0-1.37-2.49,11,11,0,0,0-4.67-1.27l-4-.41a9.16,9.16,0,0,0-4.67,2.23A5.22,5.22,0,0,0,438.43,131.44Zm7.06-22.22a4.42,4.42,0,0,0,1.14,3.29,4.32,4.32,0,0,0,3.17,1.13,5.89,5.89,0,0,0,3.5-1.07,6.78,6.78,0,0,0,2.3-2.93,10.17,10.17,0,0,0,.8-4,4.24,4.24,0,0,0-1.12-3.17,4.39,4.39,0,0,0-3.2-1.09,5.94,5.94,0,0,0-3.47,1,6.75,6.75,0,0,0-2.31,2.87A9.66,9.66,0,0,0,445.49,109.23Z" transform="translate(-348.6 -86.98)"/><path class="cls-1" d="M487.3,126.49l3.76-17.57a20.87,20.87,0,0,0,.46-3.43q0-3.76-3.73-3.76a7.61,7.61,0,0,0-4.41,1.5,13.17,13.17,0,0,0-3.78,4.35,23.36,23.36,0,0,0-2.48,6.89l-2.56,12h-4.27L478.67,87h4.27q-.46,2.08-.88,4t-.86,4q-.44,2-1,4.23T479,104h.28A16.92,16.92,0,0,1,484,99.55a9.57,9.57,0,0,1,4.86-1.35A6.92,6.92,0,0,1,494,100a7,7,0,0,1,1.82,5.18,20.61,20.61,0,0,1-.58,4.21q-1,4.9-3.68,17.06Z" transform="translate(-348.6 -86.98)"/><path class="cls-1" d="M517.84,127a7.41,7.41,0,0,1-4.33-1.29,7.92,7.92,0,0,1-2.81-3.53h-.25l-1.78,4.32H505.5L513.88,87h4.27q-1.29,6.15-2,9.41T514.23,104h.23a18.52,18.52,0,0,1,4.66-4.41,9,9,0,0,1,4.74-1.41,6.75,6.75,0,0,1,5.59,2.51,10.79,10.79,0,0,1,2,6.91,27,27,0,0,1-1.74,9.81,16.44,16.44,0,0,1-4.85,7A10.84,10.84,0,0,1,517.84,127Zm4.72-25.26a7.35,7.35,0,0,0-5,2.41,17.2,17.2,0,0,0-4,6.07,19.73,19.73,0,0,0-1.49,7.49,6,6,0,0,0,1.41,4.28,5.35,5.35,0,0,0,4.08,1.49,6.71,6.71,0,0,0,4.68-2.06,14.43,14.43,0,0,0,3.49-5.85,24.37,24.37,0,0,0,1.32-8.06Q527.08,101.74,522.56,101.74Z" transform="translate(-348.6 -86.98)"/><path class="cls-1" d="M555.54,98.31a10.16,10.16,0,0,1,7.62,2.86,10.76,10.76,0,0,1,2.79,7.86,22.52,22.52,0,0,1-1.83,9,15.59,15.59,0,0,1-5,6.55,11.57,11.57,0,0,1-7.06,2.31,10.12,10.12,0,0,1-7.64-2.87,10.83,10.83,0,0,1-2.77-7.85,22.48,22.48,0,0,1,1.85-9.08,15.39,15.39,0,0,1,5-6.53A11.66,11.66,0,0,1,555.54,98.31Zm6,10.13a6.94,6.94,0,0,0-1.59-4.74,5.42,5.42,0,0,0-4.3-1.82,7.43,7.43,0,0,0-5,1.88,12.1,12.1,0,0,0-3.4,5.22,21.74,21.74,0,0,0-1.21,7.43,7.49,7.49,0,0,0,1.61,5.14,5.87,5.87,0,0,0,4.63,1.82,7,7,0,0,0,4.75-1.85,12.1,12.1,0,0,0,3.29-5.27A23.84,23.84,0,0,0,561.53,108.44Z" transform="translate(-348.6 -86.98)"/><path class="cls-1" d="M592.68,98.16a11.59,11.59,0,0,1,3,.36l-.91,3.81a11.18,11.18,0,0,0-2.67-.33,7.05,7.05,0,0,0-4.33,1.52,13.33,13.33,0,0,0-3.53,4.23,21.5,21.5,0,0,0-2.22,6l-2.72,12.75h-4.27L581,98.66h3.53l-.56,5.15h.25a25,25,0,0,1,3-3.47,9.57,9.57,0,0,1,2.5-1.63A7.18,7.18,0,0,1,592.68,98.16Z" transform="translate(-348.6 -86.98)"/><path class="cls-1" d="M617.89,126.49l3.76-17.57a20.87,20.87,0,0,0,.46-3.43q0-3.76-3.73-3.76a7.61,7.61,0,0,0-4.41,1.5,13.17,13.17,0,0,0-3.78,4.35,23.36,23.36,0,0,0-2.48,6.89l-2.56,12h-4.27L609.26,87h4.27q-.46,2.08-.88,4t-.86,4q-.45,2-1,4.23t-1.21,4.8h.28a16.92,16.92,0,0,1,4.71-4.47,9.56,9.56,0,0,1,4.86-1.35A6.93,6.93,0,0,1,624.6,100a7,7,0,0,1,1.82,5.18,20.68,20.68,0,0,1-.58,4.21q-1,4.9-3.68,17.06Z" transform="translate(-348.6 -86.98)"/><path class="cls-1" d="M650.92,98.31a10.16,10.16,0,0,1,7.62,2.86,10.76,10.76,0,0,1,2.79,7.86,22.52,22.52,0,0,1-1.83,9,15.59,15.59,0,0,1-5,6.55,11.57,11.57,0,0,1-7.06,2.31,10.12,10.12,0,0,1-7.64-2.87,10.83,10.83,0,0,1-2.77-7.85,22.48,22.48,0,0,1,1.85-9.08,15.39,15.39,0,0,1,5-6.53A11.66,11.66,0,0,1,650.92,98.31Zm6,10.13a6.94,6.94,0,0,0-1.59-4.74,5.42,5.42,0,0,0-4.3-1.82,7.43,7.43,0,0,0-5,1.88,12.1,12.1,0,0,0-3.4,5.22,21.74,21.74,0,0,0-1.21,7.43,7.49,7.49,0,0,0,1.61,5.14,5.87,5.87,0,0,0,4.63,1.82,7,7,0,0,0,4.75-1.85,12.1,12.1,0,0,0,3.29-5.27A23.84,23.84,0,0,0,656.91,108.44Z" transform="translate(-348.6 -86.98)"/><path class="cls-1" d="M685.29,98.31a10.16,10.16,0,0,1,7.62,2.86A10.76,10.76,0,0,1,695.7,109a22.52,22.52,0,0,1-1.83,9,15.59,15.59,0,0,1-5,6.55,11.57,11.57,0,0,1-7.06,2.31,10.12,10.12,0,0,1-7.64-2.87,10.83,10.83,0,0,1-2.77-7.85,22.48,22.48,0,0,1,1.85-9.08,15.39,15.39,0,0,1,5-6.53A11.66,11.66,0,0,1,685.29,98.31Zm6,10.13a6.94,6.94,0,0,0-1.59-4.74,5.42,5.42,0,0,0-4.3-1.82,7.43,7.43,0,0,0-5,1.88A12.1,12.1,0,0,0,677,109a21.74,21.74,0,0,0-1.21,7.43,7.49,7.49,0,0,0,1.61,5.14,5.87,5.87,0,0,0,4.63,1.82,7,7,0,0,0,4.75-1.85,12.1,12.1,0,0,0,3.29-5.27A23.84,23.84,0,0,0,691.28,108.44Z" transform="translate(-348.6 -86.98)"/><path class="cls-1" d="M719.56,98.21q4.93,0,7.13,4.82H727a58.64,58.64,0,0,1,1.14-7l2-9.09h4.21l-8.38,39.51h-3.53l.56-5.31h-.2a19.06,19.06,0,0,1-4.8,4.49,9,9,0,0,1-4.62,1.32,6.65,6.65,0,0,1-5.51-2.49,10.82,10.82,0,0,1-2-6.91,26.31,26.31,0,0,1,1.83-10,16.6,16.6,0,0,1,4.94-7A11,11,0,0,1,719.56,98.21Zm-4.82,25.26a7.39,7.39,0,0,0,4.93-2.37,16.67,16.67,0,0,0,4-6.07,20,20,0,0,0,1.49-7.53,6.08,6.08,0,0,0-1.37-4.29,5.18,5.18,0,0,0-4-1.47,6.79,6.79,0,0,0-4.76,2.09,14.73,14.73,0,0,0-3.53,5.89,23.92,23.92,0,0,0-1.33,8Q710.19,123.47,714.74,123.47Z" transform="translate(-348.6 -86.98)"/></svg>